<svg width="20" height="30" version="1.1" viewBox="0 0 20 30" xmlns="http://www.w3.org/2000/svg">
 <path d="m3.4688 10.26c-0.36079-0.35898-0.36079-0.94806 0-1.307a0.9214 0.91677 0 0 1 1.3044 0l6.2167 4.952 0.32378 0.25773c0.72158 0.71795 0.72158 1.8869 0 2.6049-0.72158 0.71795-1.8965 0.71795-2.618 0l-0.25903-0.32216-4.9678-6.1854m6.5312 12.564a7.4008 7.3636 0 0 0 7.4008-7.3636c0-2.0342-0.83259-3.8751-2.1647-5.2098l1.3044-1.2978a9.2223 9.176 0 0 1 2.7105 6.5076 9.251 9.2045 0 0 1-9.251 9.2045 9.251 9.2045 0 0 1-9.251-9.2045h1.8502a7.4008 7.3636 0 0 0 7.4008 7.3636m0-17.489a1.8502 1.8409 0 0 1 1.8502 1.8409 1.8502 1.8409 0 0 1-1.8502 1.8409 1.8502 1.8409 0 0 1-1.8502-1.8409 1.8502 1.8409 0 0 1 1.8502-1.8409z" fill="#fff" stroke-width=".92277"/>
</svg>
