<svg width="20" height="30" aria-hidden="true" focusable="false" version="1.1" viewBox="0 0 20 30" xmlns="http://www.w3.org/2000/svg">
 <path d="m6.785 13.45c0.25-0.25 0.25-0.67 0-0.92-0.32-0.33-0.48-0.76-0.48-1.19s0.16-0.86 0.48-1.19c0.25-0.26 0.25-0.67 0-0.92a0.613 0.613 0 0 0-0.45-0.19c-0.16 0-0.33 0.06-0.45 0.19-0.57 0.58-0.85 1.35-0.85 2.11s0.29 1.53 0.85 2.11c0.25 0.25 0.66 0.25 0.9 0zm-2.46-5.59a0.651 0.651 0 0 0-0.92 0c-0.93 0.96-1.4 2.22-1.4 3.47 0 1.26 0.47 2.52 1.4 3.48 0.25 0.26 0.66 0.26 0.91 0s0.25-0.68 0-0.94c-0.68-0.7-1.02-1.62-1.02-2.54s0.34-1.84 1.02-2.54a0.66 0.66 0 0 0 0.01-0.93zm5.69 5.1a1.62 1.62 0 1 0-1.62-1.62c-0.01 0.89 0.72 1.62 1.62 1.62zm6.57-5.09a0.628 0.628 0 0 0-0.91 0c-0.25 0.26-0.25 0.68 0 0.94 0.68 0.7 1.02 1.62 1.02 2.54s-0.34 1.83-1.02 2.54c-0.25 0.26-0.25 0.68 0 0.94a0.651 0.651 0 0 0 0.92 0c0.93-0.96 1.4-2.22 1.4-3.48a5.048 5.048 0 0 0-1.41-3.48zm-6.57 6.39c-0.41 0-0.83-0.1-1.2-0.3l-3.15 8.37h1.49l0.86-1h4l0.84 1h1.49l-3.14-8.37c-0.38 0.2-0.78 0.3-1.19 0.3zm-0.01 0.48 1.01 3.6h-2zm-1.99 5.59 1-1h2l1 1zm5.19-11.1c-0.25 0.25-0.25 0.67 0 0.92 0.32 0.33 0.48 0.76 0.48 1.19s-0.16 0.86-0.48 1.19c-0.25 0.26-0.25 0.67 0 0.92a0.63 0.63 0 0 0 0.9 0c0.57-0.58 0.85-1.35 0.85-2.11s-0.28-1.53-0.85-2.11a0.634 0.634 0 0 0-0.9 0z" fill="#fff" fill-rule="evenodd"/>
</svg>
