<svg width="20" height="30" aria-hidden="true" focusable="false" version="1.1" viewBox="0 0 20 30" xmlns="http://www.w3.org/2000/svg">
 <path d="m0.59433 15.911h1.8555c0.35058-1.0004 1.2997-1.7101 2.4198-1.7101 0.55579 0 1.0688 0.17956 1.4878 0.47883l5.7289-4.0102 0.97477 1.3937-5.7204 4.0188c0.059854 0.21376 0.094057 0.44463 0.094057 0.68405a2.5652 2.5652 0 0 1-2.5652 2.5652 2.5566 2.5566 0 0 1-2.4198-1.7101h-1.8555v-1.7101m18.811 0v1.7101h-1.8555a2.5566 2.5566 0 0 1-2.4198 1.7101 2.5652 2.5652 0 0 1-2.5652-2.5652 2.5652 2.5652 0 0 1 2.5652-2.5652c1.1201 0 2.0692 0.7097 2.4198 1.7101h1.8555m-14.536 0a0.85506 0.85506 0 0 0-0.85506 0.85506 0.85506 0.85506 0 0 0 0.85506 0.85506 0.85506 0.85506 0 0 0 0.85506-0.85506 0.85506 0.85506 0 0 0-0.85506-0.85506m10.261 0a0.85506 0.85506 0 0 0-0.85506 0.85506 0.85506 0.85506 0 0 0 0.85506 0.85506 0.85506 0.85506 0 0 0 0.85506-0.85506 0.85506 0.85506 0 0 0-0.85506-0.85506z" fill="#fff" stroke-width=".85506"/>
</svg>
