<svg width="20" height="30" aria-hidden="true" focusable="false" version="1.1" viewBox="0 0 20 30" xmlns="http://www.w3.org/2000/svg">
 <path d="m15 15-5 5v-3h-4v-4h4v-3l5 5m4 4.5c0 0.38-0.21 0.71-0.53 0.88l-7.9 4.44c-0.16 0.12-0.36 0.18-0.57 0.18-0.21 0-0.41-0.06-0.57-0.18l-7.9-4.44a0.991 0.991 0 0 1-0.53-0.88v-9c0-0.38 0.21-0.71 0.53-0.88l7.9-4.44c0.16-0.12 0.36-0.18 0.57-0.18 0.21 0 0.41 0.06 0.57 0.18l7.9 4.44c0.32 0.17 0.53 0.5 0.53 0.88v9m-9-12.35-7 3.94v7.82l7 3.94 7-3.94v-7.82z" fill="#fff"/>
</svg>
