<svg width="20" height="30" aria-hidden="true" focusable="false" version="1.1" viewBox="0 0 20 30" xmlns="http://www.w3.org/2000/svg">
 <path d="m11.743 14.172h3.2722c0.45196 0 0.81783 0.37084 0.81783 0.82776s-0.36587 0.82776-0.81783 0.82776h-4.09a0.8228 0.8228 0 0 1-0.81783-0.82776v-4.9666c0-0.45693 0.36587-0.82776 0.81783-0.82776 0.45196 0 0.81783 0.37084 0.81783 0.82776zm4.9666-5.0254a8.3017 8.3017 0 0 1 2.3956 5.8531c0 4.5717-3.662 8.2776-8.18 8.2776v-1.6555c3.614 0 6.5443-2.9651 6.5443-6.6221a6.6387 6.6387 0 0 0-1.9171-4.6827 6.4847 6.4847 0 0 0-4.6272-1.9395c-2.9336 0-5.4169 1.9535-6.2471 4.6454l1.1191-0.76403a0.81204 0.81204 0 0 1 1.1357 0.2235 0.83356 0.83356 0 0 1-0.22101 1.1489l-2.7126 1.8517a0.81204 0.81204 0 0 1-1.1357-0.2235l-1.8285-2.7449a0.83356 0.83356 0 0 1 0.22101-1.1498 0.81204 0.81204 0 0 1 1.1357 0.2235l0.69449 1.0422c1.0057-3.417 4.1347-5.9086 7.8389-5.9086 2.259 0 4.3044 0.9271 5.7844 2.4245z" fill="#fff" stroke-width=".82776"/>
</svg>
