<svg width="20" height="30" aria-hidden="true" focusable="false" version="1.1" viewBox="0 0 20 30" xmlns="http://www.w3.org/2000/svg">
 <path d="m8.5365 21.859c-1.4033 1.9897-4.1427 2.4895-6.1228 1.1054-1.9704-1.3841-2.4318-4.1427-1.0477-6.1516a4.4071 4.4071 0 0 1 3.4411-1.9032l0.04806 1.3745c-0.87469 0.06728-1.7205 0.51904-2.2684 1.3072-0.96119 1.3841-0.66322 3.2488 0.65361 4.1812 1.3264 0.92274 3.1816 0.5671 4.1427-0.8074 0.29797-0.43254 0.47099-0.90352 0.53827-1.3841v-0.97081l5.3635-0.03845 0.06729-0.10573c0.50943-0.8843 1.6148-1.1919 2.4799-0.69206a1.8263 1.8263 0 0 1 0.65361 2.4991c-0.50943 0.87469-1.6244 1.1823-2.4895 0.68245-0.39409-0.22108-0.67284-0.57672-0.79779-0.98042l-3.9121 0.01922a4.7675 4.7675 0 0 1-0.74973 1.8647m6.9975-6.8629c2.4318 0.29797 4.162 2.4799 3.864 4.8733-0.29797 2.403-2.5087 4.1043-4.9405 3.8063a4.4494 4.4494 0 0 1-3.2969-2.1242l1.1919-0.69206a3.095 3.095 0 0 0 2.23 1.3937c1.6821 0.20185 3.1719-0.94197 3.3738-2.5472 0.20185-1.6052-0.99003-3.0758-2.6529-3.2777-0.51904-0.05767-1.0189 0.0096-1.4706 0.17302l-0.81702 0.42292-2.4799-4.5849h-0.21147a1.832 1.832 0 0 1-1.7782-1.8743c0.02884-0.99964 0.89391-1.7782 1.9032-1.7398 1.0093 0.057671 1.807 0.87469 1.7782 1.8743-0.01922 0.42292-0.18263 0.8074-0.44215 1.1054l1.8263 3.3738c0.59594-0.19224 1.2496-0.25952 1.9224-0.18263m-9.1217-2.6144c-0.96119-2.2588 0.057669-4.8444 2.278-5.7864 2.23-0.94197 4.806 0.12496 5.7672 2.3838 0.5671 1.3168 0.45176 2.7586-0.19224 3.9121l-1.1919-0.69206c0.4037-0.77857 0.47098-1.7301 0.08651-2.6241-0.65361-1.5379-2.3934-2.278-3.8832-1.6533-1.4995 0.63439-2.1723 2.403-1.5187 3.9409 0.26913 0.63439 0.7209 1.1246 1.2688 1.4514l0.37487 0.20185-2.9509 4.7964c0.02884 0.04806 0.06729 0.10573 0.096119 0.18263 0.47099 0.87469 0.14418 1.9801-0.74012 2.451-0.87469 0.47098-1.9801 0.12496-2.4607-0.77857-0.47099-0.89391-0.14418-1.9993 0.74012-2.4703 0.37487-0.20185 0.78818-0.24991 1.1823-0.1634l2.2204-3.6237c-0.45176-0.41331-0.83624-0.93236-1.0765-1.5283z" fill="#fff" stroke-width=".96119"/>
</svg>
