<?xml version="1.0" encoding="UTF-8"?>
<svg width="20" height="30" version="1.1" viewBox="0 0 20 30" xmlns="http://www.w3.org/2000/svg">
 <path d="m4.3835 7.7788h1.6047v1.6047h-1.6047v4.0118a1.6047 1.6047 0 0 1-1.6047 1.6047 1.6047 1.6047 0 0 1 1.6047 1.6047v4.0118h1.6047v1.6047h-1.6047c-0.85852-0.21664-1.6047-0.72212-1.6047-1.6047v-3.2094a1.6047 1.6047 0 0 0-1.6047-1.6047h-0.80235v-1.6047h0.80235a1.6047 1.6047 0 0 0 1.6047-1.6047v-3.2094a1.6047 1.6047 0 0 1 1.6047-1.6047m11.233 0a1.6047 1.6047 0 0 1 1.6047 1.6047v3.2094a1.6047 1.6047 0 0 0 1.6047 1.6047h0.80235v1.6047h-0.80235a1.6047 1.6047 0 0 0-1.6047 1.6047v3.2094a1.6047 1.6047 0 0 1-1.6047 1.6047h-1.6047v-1.6047h1.6047v-4.0118a1.6047 1.6047 0 0 1 1.6047-1.6047 1.6047 1.6047 0 0 1-1.6047-1.6047v-4.0118h-1.6047v-1.6047h1.6047m-5.6165 9.6282a0.80235 0.80235 0 0 1 0.80235 0.80235 0.80235 0.80235 0 0 1-0.80235 0.80235 0.80235 0.80235 0 0 1-0.80235-0.80235 0.80235 0.80235 0 0 1 0.80235-0.80235m-3.2094 0a0.80235 0.80235 0 0 1 0.80235 0.80235 0.80235 0.80235 0 0 1-0.80235 0.80235 0.80235 0.80235 0 0 1-0.80235-0.80235 0.80235 0.80235 0 0 1 0.80235-0.80235m6.4188 0a0.80235 0.80235 0 0 1 0.80235 0.80235 0.80235 0.80235 0 0 1-0.80235 0.80235 0.80235 0.80235 0 0 1-0.80235-0.80235 0.80235 0.80235 0 0 1 0.80235-0.80235z" fill="#fff" stroke-width=".80235"/>
</svg>
