<?xml version="1.0" encoding="UTF-8"?>
<svg width="20" height="30" aria-hidden="true" focusable="false" version="1.1" viewBox="0 0 20 30" xmlns="http://www.w3.org/2000/svg">
 <path d="m18.2 8.9 0.8-0.8c-1.4-1.4-3.2-2.1-5-2.1s-3.6 0.7-5 2.1l0.8 0.8c1.2-1.1 2.7-1.7 4.2-1.7s3 0.6 4.2 1.7m-0.9 0.8c-0.9-0.9-2.1-1.4-3.3-1.4s-2.4 0.5-3.3 1.4l0.8 0.8c0.7-0.7 1.6-1 2.5-1s1.8 0.3 2.5 1l0.8-0.8m-0.3 6.3h-2v-4h-2v4h-10a2 2 0 0 0-2 2v4a2 2 0 0 0 2 2h14a2 2 0 0 0 2-2v-4a2 2 0 0 0-2-2m-11 5h-2v-2h2v2m3.5 0h-2v-2h2v2m3.5 0h-2v-2h2z" fill="#fff"/>
</svg>
