<svg width="20" height="30" aria-hidden="true" focusable="false" version="1.1" viewBox="0 0 20 30" xmlns="http://www.w3.org/2000/svg">
 <g transform="matrix(.22476 0 0 .22476 -1.238 3.7618)" fill="#fff">
  <path d="m89.307 12.5h-5e-3v-4.02a1.73 1.73 0 0 0-1.73-1.73h-32.871l-25.949 25.95v5.237h0.014a1.724 1.724 0 0 0 1.716 1.588h6.49c0.907 0 1.642-0.7 1.716-1.588h0.021v-1.777h17.723a1.73 1.73 0 0 0 1.73-1.73v-17.723h21.188v66.587h-40.642v-3.012h-7e-3a1.73 1.73 0 0 0-1.73-1.728h-6.49a1.73 1.73 0 0 0-1.73 1.728v11.239c0 0.956 0.774 1.73 1.73 1.73h57.089a1.73 1.73 0 0 0 1.73-1.73v-2.448h5e-3z"/>
  <path d="m49.6 59.04c0-8.847-7.169-16.021-16.02-16.021s-16.02 7.174-16.02 16.021c0 2.99 0.834 5.78 2.26 8.175l-7.815 7.815 0.031 0.031a4.38 4.38 0 0 0-1.344 3.194c0 2.463 1.962 4.39 4.423 4.39a4.427 4.427 0 0 0 3.181-1.324l0.022 0.022 8.024-8.024a15.933 15.933 0 0 0 7.238 1.741c8.851-1e-3 16.02-7.173 16.02-16.02zm-25.318-1e-3a9.298 9.298 0 0 1 9.299-9.298 9.297 9.297 0 0 1 9.298 9.298 9.297 9.297 0 0 1-9.298 9.299 9.297 9.297 0 0 1-9.299-9.299z"/>
 </g>
</svg>
